<svg width="383" height="42" viewBox="0 0 383 42" fill="none" xmlns="http://www.w3.org/2000/svg">
<path d="M23.7574 42C9.9256 42 0 32.6602 0 21.116V21C0 9.4558 10.0537 0 23.8855 0C37.7173 0 47.6429 9.33978 47.6429 20.884V21C47.6429 32.5442 37.5892 42 23.7574 42ZM23.8855 33.7624C31.826 33.7624 37.3331 28.0773 37.3331 21.116V21C37.3331 14.0387 31.6979 8.23757 23.7574 8.23757C15.8169 8.23757 10.3098 13.9227 10.3098 20.884V21C10.3098 27.9613 15.945 33.7624 23.8855 33.7624ZM56.3908 41.3039V0.696134H65.4839L86.4878 25.6989V0.696134H96.2213V41.3039H87.8325L66.1243 15.489V41.3039H56.3908ZM106.982 41.3039V0.696134H140.793V8.64365H116.78V16.8812H137.912V24.8287H116.78V33.3564H141.114V41.3039H106.982ZM160.319 41.3039V8.9337H146.68V0.696134H183.821V8.9337H170.181V41.3039H160.319ZM211.238 42C197.406 42 187.481 32.6602 187.481 21.116V21C187.481 9.4558 197.534 0 211.366 0C225.198 0 235.124 9.33978 235.124 20.884V21C235.124 32.5442 225.07 42 211.238 42ZM211.366 33.7624C219.307 33.7624 224.814 28.0773 224.814 21.116V21C224.814 14.0387 219.179 8.23757 211.238 8.23757C203.298 8.23757 197.791 13.9227 197.791 20.884V21C197.791 27.9613 203.426 33.7624 211.366 33.7624ZM265.644 42C251.812 42 241.886 32.6602 241.886 21.116V21C241.886 9.4558 251.94 0 265.772 0C279.604 0 289.529 9.33978 289.529 20.884V21C289.529 32.5442 279.476 42 265.644 42ZM265.772 33.7624C273.712 33.7624 279.219 28.0773 279.219 21.116V21C279.219 14.0387 273.584 8.23757 265.644 8.23757C257.703 8.23757 252.196 13.9227 252.196 20.884V21C252.196 27.9613 257.831 33.7624 265.772 33.7624ZM298.277 41.3039V0.696134H307.37L328.374 25.6989V0.696134H338.108V41.3039H329.719L308.011 15.489V41.3039H298.277ZM348.869 41.3039V0.696134H382.68V8.64365H358.666V16.8812H379.798V24.8287H358.666V33.3564H383V41.3039H348.869Z" fill="#151515"/>
</svg>
