<svg width="16" height="16" viewBox="0 0 16 16" fill="none" xmlns="http://www.w3.org/2000/svg">
<g clip-path="url(#clip0_28_2)">
<path fill-rule="evenodd" clip-rule="evenodd" d="M11.2181 10.1575C12.0577 9.0897 12.5586 7.74297 12.5586 6.27928C12.5586 2.81133 9.74722 0 6.27928 0C2.81133 0 0 2.81133 0 6.27928C0 9.74722 2.81133 12.5586 6.27928 12.5586C7.74299 12.5586 9.08972 12.0577 10.1575 11.2181L14.1213 15.182C14.4142 15.4749 14.8891 15.4749 15.182 15.182C15.4749 14.8891 15.4749 14.4142 15.182 14.1213L11.2181 10.1575ZM6.27928 11.1141C3.60908 11.1141 1.44446 8.94947 1.44446 6.27928C1.44446 3.60908 3.60908 1.44446 6.27928 1.44446C8.94947 1.44446 11.1141 3.60908 11.1141 6.27928C11.1141 8.94947 8.94947 11.1141 6.27928 11.1141Z" fill="#0F0F0F"/>
</g>
<defs>
<clipPath id="clip0_28_2">
<rect width="16" height="16" fill="white"/>
</clipPath>
</defs>
</svg>
